<svg width="15" height="14" viewBox="0 0 15 14" fill="none" xmlns="http://www.w3.org/2000/svg">
<path fill-rule="evenodd" clip-rule="evenodd" d="M7.22577 0C9.12684 0 9.36522 0.00805909 10.1118 0.0421254C10.8569 0.0761083 11.3658 0.194451 11.811 0.367506C12.2713 0.546368 12.6617 0.785721 13.0509 1.17487C13.44 1.56405 13.6794 1.95442 13.8583 2.41473C14.0313 2.85999 14.1497 3.36884 14.1836 4.11391C14.2177 4.86053 14.2258 5.09892 14.2258 7.00002C14.2258 8.90109 14.2177 9.13947 14.1836 9.88609C14.1497 10.6312 14.0313 11.14 13.8583 11.5853C13.6794 12.0456 13.44 12.436 13.0509 12.8251C12.6617 13.2143 12.2713 13.4536 11.811 13.6325C11.3658 13.8055 10.8569 13.9239 10.1118 13.9579C9.36522 13.9919 9.12684 14 7.22577 14C5.32467 14 5.08629 13.9919 4.33967 13.9579C3.5946 13.9239 3.08573 13.8055 2.64048 13.6325C2.18017 13.4536 1.7898 13.2143 1.40062 12.8251C1.01147 12.436 0.77211 12.0456 0.593248 11.5853C0.420193 11.14 0.301861 10.6312 0.267878 9.88609C0.233811 9.13947 0.225754 8.90109 0.225754 7.00002C0.225754 5.09892 0.233811 4.86053 0.267878 4.11391C0.301861 3.36884 0.420193 2.85999 0.593248 2.41473C0.77211 1.95442 1.01147 1.56405 1.40062 1.17487C1.7898 0.785721 2.18017 0.546368 2.64048 0.367506C3.08573 0.194451 3.5946 0.0761083 4.33967 0.0421254C5.08629 0.00805909 5.32467 0 7.22577 0ZM10.0544 1.30208C9.31624 1.2684 9.09483 1.26126 7.22577 1.26126C5.35668 1.26126 5.13527 1.2684 4.39715 1.30208C3.71466 1.3332 3.34401 1.44724 3.09735 1.5431C2.77061 1.67008 2.53743 1.82177 2.29249 2.06674C2.04752 2.31167 1.89582 2.54486 1.76884 2.8716C1.67298 3.11826 1.55894 3.48891 1.52782 4.1714C1.49415 4.90952 1.48701 5.13093 1.48701 7.00002C1.48701 8.86908 1.49415 9.09048 1.52782 9.8286C1.55894 10.5111 1.67298 10.8817 1.76884 11.1284C1.89582 11.4551 2.04755 11.6883 2.29249 11.9333C2.53743 12.1782 2.77061 12.3299 3.09735 12.4569C3.34401 12.5528 3.71466 12.6668 4.39715 12.6979C5.13519 12.7316 5.35654 12.7387 7.22577 12.7387C9.09497 12.7387 9.31635 12.7316 10.0544 12.6979C10.7369 12.6668 11.1075 12.5528 11.3542 12.4569C11.6809 12.3299 11.9141 12.1782 12.159 11.9333C12.404 11.6883 12.5557 11.4551 12.6827 11.1284C12.7785 10.8817 12.8925 10.5111 12.9237 9.8286C12.9573 9.09048 12.9645 8.86908 12.9645 7.00002C12.9645 5.13093 12.9573 4.90952 12.9237 4.1714C12.8925 3.48891 12.7785 3.11826 12.6827 2.8716C12.5557 2.54486 12.404 2.31167 12.159 2.06674C11.9141 1.82177 11.6809 1.67008 11.3542 1.5431C11.1075 1.44724 10.7369 1.3332 10.0544 1.30208ZM7.22577 9.33333C8.51443 9.33333 9.55908 8.28867 9.55908 7.00002C9.55908 5.71133 8.51443 4.66667 7.22577 4.66667C5.93709 4.66667 4.89243 5.71133 4.89243 7.00002C4.89243 8.28867 5.93709 9.33333 7.22577 9.33333ZM7.22577 3.40541C9.21101 3.40541 10.8203 5.01475 10.8203 7.00002C10.8203 8.98525 9.21101 10.5946 7.22577 10.5946C5.24051 10.5946 3.63115 8.98525 3.63115 7.00002C3.63115 5.01475 5.24051 3.40541 7.22577 3.40541ZM11.8024 3.26339C11.8024 3.72731 11.4263 4.10338 10.9624 4.10338C10.4985 4.10338 10.1224 3.72731 10.1224 3.26339C10.1224 2.79947 10.4985 2.42338 10.9624 2.42338C11.4263 2.42338 11.8024 2.79947 11.8024 3.26339Z" fill="black"/>
</svg>
