<svg width="18" height="14" viewBox="0 0 18 14" fill="none" xmlns="http://www.w3.org/2000/svg">
<path d="M17.2257 1.65764C16.5923 1.93833 15.9118 2.12799 15.1964 2.21372C15.9262 1.77674 16.4861 1.08334 16.7501 0.257939C16.0673 0.663054 15.3109 0.957408 14.506 1.11521C13.8612 0.429392 12.9432 0 11.9266 0C9.9754 0 8.39287 1.58253 8.39287 3.53528C8.39287 3.81142 8.42473 4.07998 8.48391 4.33944C5.54568 4.1915 2.94278 2.78422 1.19941 0.646364C0.895957 1.16983 0.72147 1.77674 0.72147 2.42311C0.72147 3.64907 1.34583 4.73166 2.29338 5.36512C1.71377 5.34616 1.16907 5.1876 0.692641 4.92284V4.96835C0.692641 6.68061 1.91026 8.10914 3.52769 8.43384C3.2303 8.51425 2.9185 8.55674 2.59684 8.55674C2.36924 8.55674 2.14696 8.53549 1.93151 8.49453C2.38138 9.89802 3.68625 10.9207 5.23312 10.948C4.02308 11.8963 2.49897 12.4615 0.843611 12.4615C0.558361 12.4615 0.276905 12.4448 0 12.4122C1.56432 13.4158 3.42148 14 5.41671 14C11.9183 14 15.4725 8.61515 15.4725 3.94494C15.4725 3.79322 15.4687 3.63997 15.4619 3.48824C16.1523 2.98905 16.7516 2.36773 17.2242 1.65991L17.2257 1.65764Z" fill="black"/>
</svg>
